<svg width="18" height="20" viewBox="0 0 18 20" fill="none" xmlns="http://www.w3.org/2000/svg">
<path d="M5.48234 3.96297H12.5496C12.7248 3.96297 12.8928 3.89339 13.0167 3.76952C13.1405 3.64565 13.2101 3.47765 13.2101 3.30248V1.98149C13.2104 1.46721 13.0108 0.972968 12.6533 0.603208C12.2959 0.233449 11.8087 0.0171425 11.2947 0H6.80333C6.28682 0.00955386 5.79517 0.223487 5.43613 0.594911C5.07708 0.966336 4.87994 1.46495 4.88789 1.98149V3.30248C4.8751 3.38651 4.88111 3.47233 4.90549 3.55375C4.92986 3.63518 4.972 3.71018 5.02886 3.77336C5.08572 3.83653 5.15588 3.88631 5.2343 3.9191C5.31272 3.95189 5.39743 3.96687 5.48234 3.96297Z" fill="white"/>
<path d="M16.0833 1.68427H15.4228C15.3787 1.68135 15.3344 1.68789 15.2931 1.70346C15.2517 1.71902 15.2141 1.74325 15.1828 1.77452C15.1515 1.80579 15.1273 1.84337 15.1117 1.88476C15.0962 1.92616 15.0896 1.97039 15.0926 2.01452V3.33551C15.0926 4.02176 14.8223 4.68041 14.3401 5.16874C13.858 5.65708 13.2028 5.93578 12.5166 5.94447H5.48235C4.79615 5.93578 4.141 5.65708 3.65885 5.16874C3.17669 4.68041 2.90636 4.02176 2.90641 3.33551V2.01452C2.90933 1.97039 2.90279 1.92616 2.88723 1.88476C2.87166 1.84337 2.84743 1.80579 2.81617 1.77452C2.7849 1.74325 2.74731 1.71902 2.70592 1.70346C2.66453 1.68789 2.62029 1.68135 2.57617 1.68427H1.91567C1.39916 1.69382 0.907513 1.90776 0.548469 2.27918C0.189425 2.65061 -0.00772353 3.14923 0.000231734 3.66576V17.7343C-5.40524e-05 18.2486 0.199618 18.7428 0.557052 19.1126C0.914486 19.4824 1.40168 19.6987 1.91567 19.7158H16.0833C16.5998 19.7063 17.0915 19.4923 17.4505 19.1209C17.8095 18.7495 18.0067 18.2509 17.9987 17.7343V3.66576C18.0081 3.4086 17.9654 3.1522 17.8733 2.91193C17.7812 2.67165 17.6415 2.45244 17.4627 2.26742C17.2838 2.08241 17.0695 1.9354 16.8325 1.83519C16.5954 1.73499 16.3406 1.68366 16.0833 1.68427ZM10.0067 12.9787V13.342C9.70713 13.5539 9.34992 13.6691 8.98298 13.6723C8.49249 13.6723 8.02209 13.4774 7.67526 13.1306C7.32843 12.7838 7.13359 12.3134 7.13359 11.8229C7.13359 11.3324 7.32843 10.862 7.67526 10.5152C8.02209 10.1683 8.49249 9.97349 8.98298 9.97349C9.45164 9.97151 9.90351 10.1479 10.2469 10.4668C10.5904 10.7857 10.7997 11.2233 10.8324 11.6908C10.5904 11.8099 10.3857 11.9928 10.2402 12.2198C10.0946 12.4468 10.0139 12.7092 10.0067 12.9787ZM14.9605 17.6352C14.9506 17.7603 14.8942 17.877 14.8026 17.9626C14.7109 18.0482 14.5905 18.0963 14.4651 18.0976H11.4929C11.371 18.0951 11.2549 18.0455 11.1687 17.9594C11.0826 17.8732 11.033 17.7571 11.0305 17.6352V17.1729C11.033 17.0511 11.0826 16.9349 11.1687 16.8488C11.2549 16.7626 11.371 16.7131 11.4929 16.7105H14.4981C14.6199 16.7131 14.7361 16.7626 14.8222 16.8488C14.9084 16.9349 14.9579 17.0511 14.9605 17.1729V17.6352ZM14.9605 15.5547C14.9506 15.6797 14.8942 15.7965 14.8026 15.8821C14.7109 15.9676 14.5905 16.0158 14.4651 16.017H11.4929C11.371 16.0145 11.2549 15.965 11.1687 15.8788C11.0826 15.7926 11.033 15.6765 11.0305 15.5547V15.0923C11.033 14.9705 11.0826 14.8544 11.1687 14.7682C11.2549 14.682 11.371 14.6325 11.4929 14.63H14.4981C14.6199 14.6325 14.7361 14.682 14.8222 14.7682C14.9084 14.8544 14.9579 14.9705 14.9605 15.0923V15.5547ZM14.9605 13.4411C14.9506 13.5661 14.8942 13.6829 14.8026 13.7685C14.7109 13.854 14.5905 13.9022 14.4651 13.9034H11.4929C11.371 13.9009 11.2549 13.8514 11.1687 13.7652C11.0826 13.6791 11.033 13.5629 11.0305 13.4411V12.9787C11.033 12.8569 11.0826 12.7408 11.1687 12.6546C11.2549 12.5685 11.371 12.5189 11.4929 12.5164H14.4981C14.6199 12.5189 14.7361 12.5685 14.8222 12.6546C14.9084 12.7408 14.9579 12.8569 14.9605 12.9787V13.4411ZM14.9935 11.5587C14.8457 11.5045 14.6882 11.482 14.5311 11.4926H13.5734V10.5019C13.2231 10.5019 12.8871 10.3627 12.6393 10.115C12.3916 9.86725 12.2524 9.53125 12.2524 9.1809H5.71352C5.71352 9.53125 5.57434 9.86725 5.32661 10.115C5.07888 10.3627 4.74288 10.5019 4.39253 10.5019V13.276C4.74288 13.276 5.07888 13.4151 5.32661 13.6629C5.57434 13.9106 5.71352 14.2466 5.71352 14.597H10.0728C10.0186 14.7447 9.99611 14.9023 10.0067 15.0593V15.5217C10.0206 15.69 10.0538 15.8563 10.1058 16.017H4.16136C4.01353 16.0184 3.86693 15.9902 3.7301 15.9342C3.59328 15.8783 3.46897 15.7956 3.36444 15.6911C3.25991 15.5866 3.17725 15.4623 3.12129 15.3254C3.06533 15.1886 3.03719 15.042 3.03851 14.8942V8.9167C3.03719 8.76888 3.06533 8.62227 3.12129 8.48545C3.17725 8.34862 3.25991 8.22431 3.36444 8.11978C3.46897 8.01525 3.59328 7.9326 3.7301 7.87664C3.86693 7.82068 4.01353 7.79253 4.16136 7.79386H13.8706C14.0185 7.79253 14.1651 7.82068 14.3019 7.87664C14.4387 7.9326 14.563 8.01525 14.6676 8.11978C14.7721 8.22431 14.8547 8.34862 14.9107 8.48545C14.9667 8.62227 14.9948 8.76888 14.9935 8.9167V11.5587Z" fill="white"/>
</svg>
