<svg width="18" height="17" viewBox="0 0 18 17" fill="none" xmlns="http://www.w3.org/2000/svg">
<path d="M14.2941 4.11765L11.1176 10.5882H17.4706L14.2941 4.11765ZM3.70588 4.11765L0.529412 10.5882H6.88235L3.70588 4.11765ZM10.4972 2.35294C10.42 2.59804 10.2946 2.8171 10.1209 3.01011C9.94715 3.20313 9.75 3.34252 9.52941 3.42831V15.2941H14.5588C14.636 15.2941 14.6994 15.3217 14.7491 15.3768C14.7987 15.432 14.8235 15.5025 14.8235 15.5882V16.1765C14.8235 16.2623 14.7987 16.3327 14.7491 16.3879C14.6994 16.443 14.636 16.4706 14.5588 16.4706H3.44118C3.36397 16.4706 3.30055 16.443 3.25092 16.3879C3.20129 16.3327 3.17647 16.2623 3.17647 16.1765V15.5882C3.17647 15.5025 3.20129 15.432 3.25092 15.3768C3.30055 15.3217 3.36397 15.2941 3.44118 15.2941H8.47059V3.42831C8.25 3.34252 8.05285 3.20313 7.87914 3.01011C7.70542 2.8171 7.57996 2.59804 7.50276 2.35294H3.44118C3.36397 2.35294 3.30055 2.32537 3.25092 2.27022C3.20129 2.21507 3.17647 2.14461 3.17647 2.05882V1.47059C3.17647 1.3848 3.20129 1.31434 3.25092 1.25919C3.30055 1.20404 3.36397 1.17647 3.44118 1.17647H7.50276C7.61857 0.827206 7.81158 0.543811 8.0818 0.326287C8.35202 0.108762 8.65809 0 9 0C9.34191 0 9.64798 0.108762 9.9182 0.326287C10.1884 0.543811 10.3814 0.827206 10.4972 1.17647H14.5588C14.636 1.17647 14.6994 1.20404 14.7491 1.25919C14.7987 1.31434 14.8235 1.3848 14.8235 1.47059V2.05882C14.8235 2.14461 14.7987 2.21507 14.7491 2.27022C14.6994 2.32537 14.636 2.35294 14.5588 2.35294H10.4972ZM9 2.5C9.18199 2.5 9.33778 2.428 9.46737 2.28401C9.59697 2.14001 9.66177 1.96691 9.66177 1.76471C9.66177 1.5625 9.59697 1.3894 9.46737 1.2454C9.33778 1.10141 9.18199 1.02941 9 1.02941C8.81802 1.02941 8.66222 1.10141 8.53263 1.2454C8.40303 1.3894 8.33824 1.5625 8.33824 1.76471C8.33824 1.96691 8.40303 2.14001 8.53263 2.28401C8.66222 2.428 8.81802 2.5 9 2.5ZM18 10.5882C18 11.0355 17.8718 11.4369 17.6154 11.7923C17.3589 12.1477 17.0349 12.4265 16.6434 12.6287C16.2518 12.8309 15.8534 12.9825 15.4481 13.0836C15.0427 13.1847 14.6581 13.2353 14.2941 13.2353C13.9301 13.2353 13.5455 13.1847 13.1402 13.0836C12.7348 12.9825 12.3364 12.8309 11.9449 12.6287C11.5533 12.4265 11.2293 12.1477 10.9729 11.7923C10.7165 11.4369 10.5882 11.0355 10.5882 10.5882C10.5882 10.5208 10.6847 10.2727 10.8778 9.84375C11.0708 9.41483 11.3244 8.88021 11.6388 8.23989C11.9531 7.59957 12.2482 7.00061 12.5239 6.44301C12.7996 5.88542 13.0809 5.32169 13.3676 4.75184C13.6544 4.18199 13.8088 3.87561 13.8309 3.83272C13.9301 3.63051 14.0846 3.52941 14.2941 3.52941C14.5037 3.52941 14.6581 3.63051 14.7574 3.83272C14.7794 3.87561 14.9338 4.18199 15.2206 4.75184C15.5074 5.32169 15.7886 5.88542 16.0643 6.44301C16.3401 7.00061 16.6351 7.59957 16.9494 8.23989C17.2638 8.88021 17.5175 9.41483 17.7105 9.84375C17.9035 10.2727 18 10.5208 18 10.5882ZM7.41177 10.5882C7.41177 11.0355 7.28355 11.4369 7.02711 11.7923C6.77068 12.1477 6.44669 12.4265 6.05515 12.6287C5.6636 12.8309 5.26517 12.9825 4.85983 13.0836C4.4545 13.1847 4.06985 13.2353 3.70588 13.2353C3.34191 13.2353 2.95726 13.1847 2.55193 13.0836C2.1466 12.9825 1.74816 12.8309 1.35662 12.6287C0.965074 12.4265 0.641085 12.1477 0.384651 11.7923C0.128217 11.4369 0 11.0355 0 10.5882C0 10.5208 0.0965074 10.2727 0.289522 9.84375C0.482537 9.41483 0.736213 8.88021 1.05055 8.23989C1.36489 7.59957 1.65993 7.00061 1.93566 6.44301C2.2114 5.88542 2.49265 5.32169 2.77941 4.75184C3.06618 4.18199 3.22059 3.87561 3.24265 3.83272C3.34191 3.63051 3.49632 3.52941 3.70588 3.52941C3.91544 3.52941 4.06985 3.63051 4.16912 3.83272C4.19118 3.87561 4.34559 4.18199 4.63235 4.75184C4.91912 5.32169 5.20037 5.88542 5.4761 6.44301C5.75184 7.00061 6.04688 7.59957 6.36121 8.23989C6.67555 8.88021 6.92923 9.41483 7.12224 9.84375C7.31526 10.2727 7.41177 10.5208 7.41177 10.5882Z" fill="white"/>
</svg>
