<svg width="20" height="21" viewBox="0 0 20 21" fill="none" xmlns="http://www.w3.org/2000/svg">
<path d="M1.48461 8.36969H1.94023C1.93713 8.39349 1.93505 8.41758 1.93505 8.44224V17.314H1.62538C1.31363 17.314 1.06079 17.5668 1.06079 17.8785C1.06079 18.1903 1.31363 18.4431 1.62538 18.4431H2.49964H4.64253H6.78551H8.92849H11.0714H13.2144H15.3573H17.5002H18.3745C18.6862 18.4431 18.9391 18.1903 18.9391 17.8785C18.9391 17.5668 18.6862 17.314 18.3745 17.314H18.0648V8.44224C18.0648 8.41758 18.0627 8.39349 18.0596 8.36969H18.5153C18.9407 8.36969 19.3161 8.09821 19.4494 7.69416C19.5826 7.2901 19.4423 6.8486 19.1003 6.59547L10.3358 0.110729C10.1364 -0.0369098 9.86363 -0.0369098 9.66424 0.110729L0.899509 6.59547C0.557558 6.8485 0.417259 7.2901 0.550501 7.69416C0.683743 8.09821 1.0591 8.36969 1.48461 8.36969ZM10.5069 17.314H9.49317V8.44224C9.49317 8.41758 9.4911 8.39349 9.488 8.36969H10.5122C10.5091 8.39349 10.507 8.41758 10.507 8.44224V17.314H10.5069ZM6.22092 17.314H5.20702V8.44224C5.20702 8.41758 5.20495 8.39349 5.20185 8.36969H6.2261C6.22299 8.39349 6.22092 8.41758 6.22092 8.44224V17.314ZM3.06413 17.314V9.00682H4.07785V17.314H3.06413ZM7.3501 17.314V9.00682H8.3639V17.314H7.3501ZM11.636 17.314V9.00682H12.6498V17.314H11.636ZM15.922 17.314V9.00682H16.9357V17.314H15.922ZM14.7928 8.44224V17.314H13.779V8.44224C13.779 8.41758 13.777 8.39349 13.7739 8.36969H14.7981C14.795 8.39349 14.7928 8.41758 14.7928 8.44224ZM9.99998 1.26691L18.0738 7.24042H1.92621L9.99998 1.26691Z" fill="#3D5090"/>
<path d="M19.4354 19.121H0.564586C0.252841 19.121 0 19.3738 0 19.6856C0 19.9973 0.252841 20.2501 0.564586 20.2501H19.4354C19.7472 20.2501 20 19.9973 20 19.6856C20 19.3738 19.7473 19.121 19.4354 19.121Z" fill="#3D5090"/>
</svg>
