<svg width="50" height="35" viewBox="0 0 50 35" fill="none" xmlns="http://www.w3.org/2000/svg">
<rect y="34" width="50" height="1" fill="#3D5090" fill-opacity="0.4"/>
<path d="M8 34L8 1C8 0.447716 8.44771 -1.95703e-08 9 -4.37114e-08L11 -1.31134e-07C11.5523 -1.55275e-07 12 0.447716 12 1L12 34L8 34Z" fill="#3D5090"/>
<path d="M23 34L23 1C23 0.447716 23.4477 -1.95703e-08 24 -4.37114e-08L26 -1.31134e-07C26.5523 -1.55275e-07 27 0.447716 27 1L27 34L23 34Z" fill="#3D5090"/>
<path d="M38 34L38 1C38 0.447716 38.4477 -1.95703e-08 39 -4.37114e-08L41 -1.31134e-07C41.5523 -1.55275e-07 42 0.447716 42 1L42 34L38 34Z" fill="#3D5090"/>
</svg>
