<svg width="50" height="35" viewBox="0 0 50 35" fill="none" xmlns="http://www.w3.org/2000/svg">
<rect y="34" width="50" height="1" fill="#3D5090" fill-opacity="0.4"/>
<path d="M8 34L8 1C8 0.447716 8.44771 -1.95703e-08 9 -4.37114e-08L11 -1.31134e-07C11.5523 -1.55275e-07 12 0.447715 12 1L12 34L8 34Z" fill="#3D5090"/>
<path d="M23 34L23 23C23 22.4477 23.4477 22 24 22L26 22C26.5523 22 27 22.4477 27 23L27 34L23 34Z" fill="#3D5090"/>
<path d="M38 34L38 12C38 11.4477 38.4477 11 39 11L41 11C41.5523 11 42 11.4477 42 12L42 34L38 34Z" fill="#3D5090"/>
</svg>
