<svg width="18" height="17" viewBox="0 0 18 17" fill="none" xmlns="http://www.w3.org/2000/svg">
<path d="M16.8948 5.5404L15.6636 1.8459C15.485 1.30813 15.1415 0.84033 14.6818 0.508957C14.2221 0.177584 13.6697 -0.000502385 13.1031 1.0645e-06H4.8969C4.33025 -0.000502385 3.77785 0.177584 3.3182 0.508957C2.85854 0.84033 2.515 1.30813 2.3364 1.8459L1.1052 5.5404C0.778151 5.67763 0.498849 5.90828 0.30226 6.20349C0.105671 6.49869 0.00053018 6.84533 0 7.2V11.7C0 12.3777 0.3807 12.9618 0.9351 13.2687C0.9234 13.3281 0.9 13.3821 0.9 13.4442V15.3C0.9 15.5387 0.994821 15.7676 1.1636 15.9364C1.33239 16.1052 1.56131 16.2 1.8 16.2H2.7C2.93869 16.2 3.16761 16.1052 3.3364 15.9364C3.50518 15.7676 3.6 15.5387 3.6 15.3V13.5H14.4V15.3C14.4 15.5387 14.4948 15.7676 14.6636 15.9364C14.8324 16.1052 15.0613 16.2 15.3 16.2H16.2C16.4387 16.2 16.6676 16.1052 16.8364 15.9364C17.0052 15.7676 17.1 15.5387 17.1 15.3V13.4442C17.1 13.3821 17.0766 13.3272 17.0649 13.2687C17.347 13.1149 17.5825 12.8882 17.747 12.6123C17.9115 12.3363 17.9989 12.0213 18 11.7V7.2C18 6.4539 17.5428 5.8131 16.8948 5.5404ZM1.8 11.7V7.2H16.2L16.2018 11.7H1.8ZM4.8969 1.8H13.1022C13.4901 1.8 13.8339 2.0466 13.9563 2.4156L14.9517 5.4H3.0483L4.0428 2.4156C4.10251 2.23632 4.21714 2.08037 4.37044 1.96988C4.52374 1.85939 4.70793 1.79996 4.8969 1.8Z" fill="#3D5090"/>
<path d="M4.0502 10.8C4.79578 10.8 5.4002 10.1956 5.4002 9.45C5.4002 8.70441 4.79578 8.1 4.0502 8.1C3.30461 8.1 2.7002 8.70441 2.7002 9.45C2.7002 10.1956 3.30461 10.8 4.0502 10.8Z" fill="#3D5090"/>
<path d="M13.9501 10.8C14.6957 10.8 15.3001 10.1956 15.3001 9.45C15.3001 8.70441 14.6957 8.1 13.9501 8.1C13.2045 8.1 12.6001 8.70441 12.6001 9.45C12.6001 10.1956 13.2045 10.8 13.9501 10.8Z" fill="#3D5090"/>
</svg>
