<svg width="20" height="19" viewBox="0 0 20 19" fill="none" xmlns="http://www.w3.org/2000/svg">
<path d="M19.6691 14.6977H17.1892V12.2343C17.1892 12.0525 17.0404 11.9037 16.8585 11.9037C16.6767 11.9037 16.5279 12.0525 16.5279 12.2343V14.6977H14.0479C13.8661 14.6977 13.7173 14.8465 13.7173 15.0284C13.7173 15.2103 13.8661 15.359 14.0479 15.359H16.5279V17.8555C16.5279 18.0374 16.6767 18.1862 16.8585 18.1862C17.0404 18.1862 17.1892 18.0374 17.1892 17.8555V15.359H19.6691C19.851 15.359 19.9998 15.2103 19.9998 15.0284C19.9998 14.8465 19.851 14.6977 19.6691 14.6977Z" fill="white"/>
<path d="M13.9159 9.60557C14.4119 9.75437 14.8748 9.98583 15.2385 10.3165C15.3708 10.4322 15.5857 10.4157 15.7015 10.2834C15.8172 10.1512 15.8007 9.93623 15.6684 9.8205C15.222 9.42371 14.6764 9.14266 14.0647 8.97733L13.8663 8.92773C13.5522 8.84506 13.205 8.96079 13.0066 9.19225C12.2792 10.0189 11.3533 10.085 10.3779 10.085C9.41899 10.085 8.49315 10.0189 7.76571 9.19225C7.55078 8.94426 7.22012 8.84506 6.92253 8.92773L6.72414 8.97733C5.35191 9.34105 4.26075 10.3992 3.86396 11.7714L3.5829 12.7303C3.56637 12.7303 3.54983 12.7303 3.5333 12.7303H0.805385C0.739254 12.7303 0.706188 12.6972 0.689655 12.6807C0.673122 12.6641 0.640057 12.6145 0.65659 12.5484L1.20217 10.6141C1.66509 9.07652 2.64053 8.58054 4.39301 8.16722C4.42607 8.16722 4.44261 8.15068 4.47567 8.13415C4.5914 8.21682 4.72367 8.29948 4.8394 8.36561C4.88899 8.39868 4.93859 8.39868 4.98819 8.39868C5.10392 8.39868 5.21965 8.33255 5.28578 8.21682C5.36845 8.05149 5.30231 7.85309 5.15352 7.77043C4.17808 7.27445 3.46717 5.83609 3.46717 4.36467C3.46717 3.02551 4.5418 1.95087 5.88096 1.95087C6.27775 1.95087 6.64147 2.05007 7.0052 2.23193C6.8068 2.69485 6.69107 3.20737 6.69107 3.73642C6.69107 6.56353 8.39395 8.94426 10.4275 8.94426C12.4114 8.94426 14.1639 6.51393 14.1639 3.73642C14.1639 1.66982 12.4941 0 10.4275 0C9.13793 0 7.99717 0.661313 7.31932 1.65328L7.30279 1.63675C6.8564 1.40529 6.37695 1.28956 5.88096 1.28956C4.17808 1.28956 2.80586 2.66179 2.80586 4.36467C2.80586 5.60463 3.23571 6.79499 3.91356 7.58857C2.40907 7.96882 1.15257 8.53094 0.573925 10.4157L0.028342 12.3666C-0.0377893 12.6145 0.0118092 12.8791 0.177137 13.0775C0.325933 13.2759 0.557393 13.3916 0.805385 13.3916H3.38451L3.15305 14.1686C3.07038 14.4497 3.11998 14.7473 3.30184 14.9787C3.4837 15.2102 3.76476 15.359 4.06235 15.359H11.0723C11.2541 15.359 11.4029 15.2102 11.4029 15.0283C11.4029 14.8465 11.2541 14.6977 11.0723 14.6977H4.06235C3.97969 14.6977 3.89702 14.6646 3.84743 14.582C3.81436 14.5489 3.78129 14.4662 3.81436 14.3505L4.50874 11.9367C4.8394 10.7959 5.7487 9.90316 6.906 9.60557L7.10439 9.55598C7.17052 9.53944 7.23666 9.57251 7.28625 9.62211C8.19556 10.6637 9.31979 10.7463 10.411 10.7463C11.5021 10.7463 12.6264 10.6637 13.5357 9.62211C13.5357 9.62211 13.5357 9.60557 13.5522 9.60557C13.5853 9.57251 13.6679 9.53944 13.7175 9.55598L13.9159 9.60557ZM10.4275 0.661313C11.7997 0.661313 12.957 1.57062 13.3538 2.81058C12.7752 2.92631 12.1634 2.69485 11.7997 2.19887C11.684 2.05007 11.4856 2.01701 11.3368 2.13274C11.2707 2.18233 11.2376 2.23193 11.2211 2.29806C11.2045 2.3146 11.2045 2.33113 11.188 2.34766C10.7251 3.29003 9.171 3.68682 7.38545 3.33963C7.58385 1.83514 8.87341 0.661313 10.4275 0.661313ZM8.62541 4.11667C9.94804 4.11667 11.0392 3.70335 11.6013 2.92631C12.0146 3.29003 12.5272 3.48843 13.0727 3.48843C13.205 3.48843 13.3538 3.47189 13.4861 3.43883C13.5026 3.53803 13.5026 3.62069 13.5026 3.71989C13.5026 6.15021 12.0642 8.28295 10.4275 8.28295C8.85687 8.28295 7.45158 6.31554 7.35239 4.00094C7.79877 4.08361 8.21209 4.11667 8.62541 4.11667Z" fill="white"/>
</svg>
