<svg width="14" height="16" viewBox="0 0 14 16" fill="none" xmlns="http://www.w3.org/2000/svg">
<path d="M7.00009 5.27858e-09C7.62831 -4.11278e-05 8.23273 0.240314 8.68936 0.67176C9.146 1.10321 9.42023 1.69303 9.45579 2.32025L9.45958 2.45949H13.4326C13.5764 2.45953 13.7148 2.51416 13.8199 2.61234C13.925 2.71051 13.9889 2.84491 13.9987 2.98838C14.0085 3.13185 13.9635 3.27369 13.8727 3.38524C13.782 3.49679 13.6522 3.56974 13.5098 3.58934L13.4326 3.59464H12.8302L11.8616 13.4477C11.813 13.939 11.5915 14.3969 11.2365 14.7399C10.8814 15.0828 10.4161 15.2884 9.92347 15.32L9.79028 15.3245H4.20989C3.71607 15.3245 3.23835 15.1489 2.86209 14.8291C2.48584 14.5092 2.23558 14.066 2.15603 13.5787L2.13862 13.447L1.1692 3.59464H0.567575C0.43042 3.59463 0.297907 3.54496 0.194541 3.45481C0.0911757 3.36466 0.0239503 3.24013 0.00529734 3.10425L0 3.02706C5.78389e-06 2.88991 0.0496761 2.7574 0.139825 2.65403C0.229975 2.55067 0.354504 2.48344 0.490384 2.46479L0.567575 2.45949H4.5406C4.5406 1.80719 4.79972 1.18161 5.26096 0.720368C5.72221 0.259124 6.34779 5.27858e-09 7.00009 5.27858e-09ZM11.6898 3.59464H2.30965L3.26847 13.3357C3.2897 13.5531 3.38549 13.7564 3.53956 13.9112C3.69364 14.0659 3.89652 14.1626 4.11378 14.1848L4.20989 14.1894H9.79028C10.2443 14.1894 10.6295 13.8677 10.7173 13.4311L10.7325 13.3357L11.689 3.59464H11.6898ZM8.32443 5.67575C8.46158 5.67575 8.5941 5.72542 8.69746 5.81557C8.80083 5.90572 8.86805 6.03025 8.8867 6.16613L8.892 6.24332V11.5407C8.89196 11.6845 8.83733 11.8229 8.73916 11.928C8.64098 12.0331 8.50658 12.097 8.36311 12.1068C8.21964 12.1166 8.0778 12.0715 7.96625 11.9808C7.8547 11.89 7.78175 11.7603 7.76215 11.6179L7.75685 11.5407V6.24332C7.75685 6.09279 7.81665 5.94843 7.92309 5.84199C8.02953 5.73554 8.1739 5.67575 8.32443 5.67575ZM5.67575 5.67575C5.8129 5.67575 5.94541 5.72542 6.04878 5.81557C6.15214 5.90572 6.21937 6.03025 6.23802 6.16613L6.24332 6.24332V11.5407C6.24328 11.6845 6.18865 11.8229 6.09047 11.928C5.9923 12.0331 5.8579 12.097 5.71443 12.1068C5.57096 12.1166 5.42912 12.0715 5.31757 11.9808C5.20602 11.89 5.13307 11.7603 5.11347 11.6179L5.10817 11.5407V6.24332C5.10817 6.09279 5.16797 5.94843 5.27441 5.84199C5.38085 5.73554 5.52522 5.67575 5.67575 5.67575ZM7.00009 1.13515C6.66772 1.13516 6.34751 1.26015 6.10302 1.48529C5.85853 1.71043 5.70763 2.01928 5.68029 2.35052L5.67575 2.45949H8.32443C8.32443 2.10825 8.1849 1.7714 7.93654 1.52304C7.68818 1.27468 7.35132 1.13515 7.00009 1.13515Z" fill="white"/>
</svg>
