<svg width="10" height="10" viewBox="0 0 10 10" fill="none" xmlns="http://www.w3.org/2000/svg">
<path d="M9.35227 0.647198C8.49147 -0.215733 7.0916 -0.215733 6.2308 0.647198L0.507759 6.36811C0.463014 6.41286 0.435315 6.47039 0.426793 6.53218L0.00278458 9.67282C-0.00999958 9.76231 0.0219608 9.8518 0.0837509 9.91359C0.137018 9.96685 0.211593 9.99881 0.286167 9.99881C0.298951 9.99881 0.311735 9.99881 0.324519 9.99668L2.21658 9.741C2.37425 9.71969 2.48504 9.57481 2.46374 9.41713C2.44243 9.25946 2.29754 9.14867 2.13987 9.16997L0.622816 9.37452L0.918983 7.18417L3.22439 9.48958C3.27766 9.54285 3.35224 9.57481 3.42681 9.57481C3.50138 9.57481 3.57596 9.54498 3.62923 9.48958L9.35227 3.76866C9.76988 3.35105 10 2.79707 10 2.20687C10 1.61666 9.76988 1.06268 9.35227 0.647198ZM6.3416 1.35033L7.30254 2.31127L2.08021 7.5336L1.11927 6.57266L6.3416 1.35033ZM3.42894 8.8802L2.4893 7.94056L7.71163 2.71823L8.65127 3.65787L3.42894 8.8802ZM9.05184 3.24664L6.75282 0.947626C7.04473 0.706858 7.40908 0.574755 7.7926 0.574755C8.22939 0.574755 8.63849 0.74521 8.94744 1.05203C9.25639 1.35885 9.42471 1.77007 9.42471 2.20687C9.42471 2.59252 9.29261 2.95474 9.05184 3.24664Z" fill="#3D5090"/>
</svg>
