<svg width="16" height="18" viewBox="0 0 16 18" fill="none" xmlns="http://www.w3.org/2000/svg">
<path d="M5 8C3.82843 9.36107 3.17157 10.1242 2 11.4852M5 8L8 11.4852M5 8V15" stroke="#3D5090" stroke-width="0.5"/>
<path d="M14.9232 4.36919H14.6779V1.06745C14.6779 0.478331 14.1943 0 13.6008 0H13.1261L13.074 0.0039657C9.4695 0.594011 1.06915 3.07772 0.98665 3.10185C0 3.38755 0 4.10289 0 4.53169V5.43672V14.674V15.9541C0 16.542 0.483577 17.0213 1.07706 17.0213H14.9232C15.5174 17.0213 16 16.542 16 15.9541V13.4006V9.14431V5.43672C16 4.84752 15.5174 4.36919 14.9232 4.36919ZM1.1691 3.71333C1.25262 3.68793 9.57465 1.22692 13.1526 0.636874H13.6008C13.8403 0.636874 14.0356 0.830434 14.0356 1.06745V4.36952H1.07706C0.921946 4.36952 0.776021 4.40361 0.643463 4.46192C0.644485 4.10019 0.674879 3.85618 1.1691 3.71333ZM15.3574 12.7649H11.131C10.8919 12.7649 10.6966 12.5704 10.6966 12.3334V10.2114C10.6966 9.9744 10.8919 9.78084 11.131 9.78084H15.3574V12.7649ZM11.131 9.14431C10.5378 9.14431 10.0542 9.62357 10.0542 10.2115V12.3335C10.0542 12.9223 10.5378 13.4007 11.131 13.4007H15.3574V15.9542C15.3574 16.1912 15.163 16.3847 14.9229 16.3847H1.07706C0.837575 16.3847 0.642612 16.1912 0.642612 15.9542V14.6741V5.43672C0.642612 5.19937 0.837916 5.00614 1.07706 5.00614H14.9232C15.1633 5.00614 15.3576 5.19937 15.3576 5.43672V9.14431H11.131Z" fill="#3D5090"/>
</svg>
