<svg width="22" height="24" viewBox="0 0 22 24" fill="none" xmlns="http://www.w3.org/2000/svg">
<path d="M21.2609 11.4391C21.5139 11.0155 22.4452 9.83072 20.7384 8.28814C20.5211 7.81228 21.7405 6.63208 19.9371 5.85285C19.6505 5.60698 20.1723 5.0827 19.3445 4.73469C18.5168 4.3882 17.2538 4.46385 17.2538 4.46385C17.2538 4.46385 17.0622 3.7111 16.5218 3.75347C15.9822 3.79735 16.0694 4.46385 16.0694 4.46385C16.0694 4.46385 15.1638 1.82354 14.3275 1.48462C13.492 1.14645 11.5748 0.265838 10.7736 0.175054C9.97154 0.0819997 7.2882 -0.444549 5.40613 0.943694C4.53556 0.436058 2.7228 1.48462 1.99161 2.5014C1.81407 2.80628 1.94879 3.1732 2.09829 3.43799C0.604003 5.07287 1.10002 7.69577 1.43953 8.54461C1.44965 8.57941 1.45744 8.61723 1.466 8.6543C1.26043 8.69516 0.938057 8.69516 0.681093 8.3411C0.572077 8.851 1.18101 8.92666 1.51272 8.9312C1.54854 9.27012 1.50416 9.6378 1.26666 9.98505C0.767526 10.7128 0.212327 11.0457 0.0324512 11.5337C-0.223735 12.2138 1.12105 12.3318 1.12105 12.3318L1.12416 12.5913C1.12416 12.5913 0.692773 12.9976 0.783879 13.3153C0.906132 13.7382 1.7728 13.5869 1.7728 13.5869C1.7728 13.5869 0.940394 13.8857 0.979328 14.2791C1.01826 14.6733 1.36633 14.8435 1.36633 14.8435C1.36633 14.8435 0.560397 16.3823 1.74555 16.7205C2.9307 17.0579 5.33527 15.6538 5.64908 17.2962C5.95199 18.4287 7.30144 21.2098 6.83345 21.7303C6.36547 22.2508 5.64908 23.0504 5.64908 23.0504L17.9491 23.4226C17.9491 23.4226 14.1507 18.6474 13.7676 18.108C13.446 17.6525 12.2749 16.0434 12.7288 14.6559C13.4702 14.6219 14.9193 14.376 14.8484 12.962C16.7211 12.2683 16.5903 9.91621 16.5903 9.91621L16.7235 7.13821C16.7235 7.13821 16.7289 6.51407 16.9555 7.11475C17.1821 7.7162 17.3067 7.76008 17.4679 7.85767C17.8051 8.06421 18.551 8.84117 18.1578 9.30644C17.7669 9.77171 17.3737 10.8982 19.0985 11.4815C18.2886 11.5064 17.1915 13.4114 18.7613 14.8291C18.2154 14.7217 17.4523 15.8232 18.6811 17.1948C18.4202 17.0428 17.2164 18.8191 18.6009 19.3268C17.3464 20.1915 18.1306 20.749 18.0877 21.6629C17.7654 24.9887 20.1691 23.0852 20.5266 22.4747C18.4249 23.4355 18.8205 21.8316 18.8205 21.8316L18.9599 20.951C18.9599 20.951 21.007 20.3163 20.5639 18.5468C21.2173 18.3024 21.8176 17.9552 21.0864 16.4822C21.7662 16.3309 22.0785 15.6954 21.2601 14.4509C21.6961 14.2731 22.6804 13.2851 21.2609 11.4391Z" fill="#3D5090"/>
</svg>
