<svg width="18" height="17" viewBox="0 0 18 17" fill="none" xmlns="http://www.w3.org/2000/svg">
<path d="M12.5483 14.3483L12.0671 10.4954C11.9989 9.94968 11.7337 9.44765 11.3213 9.08375C10.9089 8.71984 10.3778 8.51912 9.82782 8.51933H8.17056C7.62084 8.51949 7.09009 8.72037 6.67803 9.08425C6.26598 9.44812 6.00097 9.94993 5.9328 10.4954L5.45082 14.3483C5.42436 14.56 5.44325 14.7749 5.50622 14.9787C5.56918 15.1825 5.67479 15.3706 5.81603 15.5305C5.95727 15.6904 6.13091 15.8184 6.32541 15.906C6.51991 15.9936 6.73083 16.0388 6.94415 16.0387H11.0557C11.269 16.0387 11.4798 15.9934 11.6742 15.9057C11.8686 15.8181 12.0422 15.6901 12.1833 15.5302C12.3245 15.3703 12.43 15.1823 12.493 14.9785C12.5559 14.7748 12.5748 14.5599 12.5483 14.3483V14.3483Z" stroke="#3D5090" stroke-linecap="round" stroke-linejoin="round"/>
<path d="M8.99994 5.5116C10.2458 5.5116 11.2557 4.50164 11.2557 3.2558C11.2557 2.00996 10.2458 1 8.99994 1C7.7541 1 6.74414 2.00996 6.74414 3.2558C6.74414 4.50164 7.7541 5.5116 8.99994 5.5116Z" stroke="#3D5090"/>
<path d="M2.98458 7.76739C3.81514 7.76739 4.48844 7.09409 4.48844 6.26352C4.48844 5.43296 3.81514 4.75966 2.98458 4.75966C2.15402 4.75966 1.48071 5.43296 1.48071 6.26352C1.48071 7.09409 2.15402 7.76739 2.98458 7.76739Z" stroke="#3D5090"/>
<path d="M15.0153 7.76739C15.8459 7.76739 16.5192 7.09409 16.5192 6.26352C16.5192 5.43296 15.8459 4.75966 15.0153 4.75966C14.1848 4.75966 13.5115 5.43296 13.5115 6.26352C13.5115 7.09409 14.1848 7.76739 15.0153 7.76739Z" stroke="#3D5090"/>
<path d="M2.98454 10.0232H2.75444C2.39845 10.0231 2.05398 10.1494 1.78233 10.3795C1.51067 10.6095 1.32944 10.9285 1.27088 11.2797L1.02049 12.7835C0.984554 12.999 0.99599 13.2197 1.054 13.4303C1.11201 13.6409 1.2152 13.8363 1.3564 14.003C1.49759 14.1697 1.6734 14.3036 1.8716 14.3954C2.06979 14.4873 2.28561 14.5348 2.50405 14.5348H5.24034" stroke="#3D5090" stroke-linecap="round" stroke-linejoin="round"/>
<path d="M15.0153 10.0232H15.2454C15.6014 10.0231 15.9459 10.1494 16.2175 10.3795C16.4892 10.6095 16.6704 10.9285 16.729 11.2797L16.9794 12.7835C17.0153 12.999 17.0039 13.2197 16.9459 13.4303C16.8878 13.6409 16.7847 13.8363 16.6435 14.003C16.5023 14.1697 16.3265 14.3036 16.1283 14.3954C15.9301 14.4873 15.7142 14.5348 15.4958 14.5348H12.7595" stroke="#3D5090" stroke-linecap="round" stroke-linejoin="round"/>
</svg>
