<svg width="10" height="9" viewBox="0 0 10 9" fill="none" xmlns="http://www.w3.org/2000/svg">
<path d="M9.19227 0.816195C8.66864 0.292558 7.9754 0.00635998 7.23553 0.00635998C6.49565 0.00635998 5.8003 0.294678 5.27666 0.818315L5.00318 1.09179L4.72546 0.814075C4.20183 0.290438 3.50435 0 2.76447 0C2.02672 0 1.33136 0.288318 0.809847 0.809835C0.28621 1.33347 -0.00210838 2.02883 1.16084e-05 2.7687C1.16084e-05 3.50858 0.29045 4.20181 0.814086 4.72545L4.79542 8.70678C4.85054 8.7619 4.92474 8.79158 4.99682 8.79158C5.0689 8.79158 5.1431 8.76402 5.19822 8.7089L9.18803 4.73393C9.71167 4.21029 9.99999 3.51494 9.99999 2.77506C10.0021 2.03519 9.71591 1.33983 9.19227 0.816195ZM8.78524 4.32901L4.99682 8.10259L1.21688 4.32265C0.801367 3.90714 0.572408 3.35594 0.572408 2.7687C0.572408 2.18147 0.799247 1.63027 1.21476 1.21687C1.62816 0.803475 2.17936 0.574516 2.76447 0.574516C3.35171 0.574516 3.90503 0.803475 4.32054 1.21899L4.79966 1.69811C4.91202 1.81047 5.09222 1.81047 5.20458 1.69811L5.67946 1.22323C6.09497 0.807715 6.64829 0.578756 7.23341 0.578756C7.81852 0.578756 8.36972 0.807715 8.78524 1.22111C9.20075 1.63663 9.42759 2.18783 9.42759 2.77506C9.42971 3.3623 9.20075 3.9135 8.78524 4.32901Z" fill="#3D5090"/>
</svg>
