<svg width="21" height="15" viewBox="0 0 21 15" fill="none" xmlns="http://www.w3.org/2000/svg">
<path d="M16.725 7.60957C16.486 7.3752 16.4813 6.98614 16.7204 6.74708L18.9329 4.50176H8.38599C8.04849 4.50176 7.77661 4.22989 7.77661 3.89239C7.77661 3.55489 8.04849 3.28301 8.38599 3.28301H18.9282L16.7157 1.0377C16.4813 0.798637 16.4813 0.414262 16.7204 0.1752C16.9594 -0.0591755 17.3438 -0.0591752 17.5829 0.179887L20.8172 3.46114C20.8688 3.51739 20.9157 3.57832 20.9438 3.65332C20.9766 3.72832 20.9907 3.80801 20.9907 3.8877C20.9907 4.04707 20.9297 4.19707 20.8172 4.31426L17.5829 7.59551C17.3485 7.83926 16.9641 7.84395 16.725 7.60957Z" fill="#3D5090"/>
<path d="M4.26562 14.0783C4.50469 13.844 4.50938 13.4549 4.27031 13.2158L2.0625 10.9705H12.6047C12.9422 10.9705 13.2141 10.6986 13.2141 10.3611C13.2141 10.0236 12.9422 9.75176 12.6047 9.75176H2.0625L4.275 7.50645C4.50938 7.26739 4.50938 6.88301 4.27031 6.64395C4.03125 6.40957 3.64688 6.40957 3.40781 6.64864L0.173438 9.92989C0.121875 9.98614 0.075 10.0471 0.046875 10.1221C0.0140625 10.1971 0 10.2768 0 10.3564C0 10.5158 0.0609375 10.6658 0.173438 10.783L3.40781 14.0643C3.64219 14.308 4.02656 14.3127 4.26562 14.0783Z" fill="#3D5090"/>
</svg>
