<svg width="18" height="18" viewBox="0 0 18 18" fill="none" xmlns="http://www.w3.org/2000/svg">
<path d="M0.900153 9.90004H1.80014V11.7V16.1999C1.80014 17.1926 2.60742 17.9999 3.6001 17.9999H14.3999C15.3926 17.9999 16.1999 17.1926 16.1999 16.1999V11.7V9.90004H17.0998C17.4634 9.90004 17.7928 9.68044 17.9314 9.34475C18.0709 9.00816 17.9935 8.62116 17.7361 8.36377L9.63629 0.26392C9.28439 -0.0879733 8.71561 -0.0879733 8.36371 0.26392L0.263865 8.36377C0.0064702 8.62116 -0.0709283 9.00816 0.068569 9.34475C0.207166 9.68044 0.53656 9.90004 0.900153 9.90004ZM9 2.17278L14.3999 7.57268V11.7L14.4008 16.1999H3.6001V11.7V9.00006V7.57268L9 2.17278Z" fill="white"/>
<path d="M9.00008 14.4C12.3327 14.4 13.4109 11.2149 13.455 11.0799L11.745 10.521C11.7378 10.5417 11.0421 12.6 9.00008 12.6C6.98592 12.6 6.28213 10.6011 6.25423 10.5156L4.54517 11.0799C4.58927 11.2149 5.66744 14.4 9.00008 14.4Z" fill="white"/>
</svg>
