<svg width="20" height="20" viewBox="0 0 20 20" fill="none" xmlns="http://www.w3.org/2000/svg">
<path d="M9.03253 3.22447L5.48416 2.25805L4.61222 2.98319C4.33837 2.57255 4.19385 2.0948 4.19385 1.6016V0.806421C4.19385 0.361592 4.55545 -1.52588e-05 5.00028 -1.52588e-05C5.44511 -1.52588e-05 5.80672 0.361592 5.80672 0.806421V1.12898C5.80672 1.21767 5.87928 1.2903 5.96804 1.2903C6.05679 1.2903 6.12935 1.21774 6.12935 1.12898V0.806421C6.12935 0.361592 6.49096 -1.52588e-05 6.93579 -1.52588e-05C7.38061 -1.52588e-05 7.74222 0.361592 7.74222 0.806421V1.12898C7.74222 1.21767 7.81478 1.2903 7.90354 1.2903C7.99229 1.2903 8.06485 1.21774 8.06485 1.12898V0.806421C8.06485 0.361592 8.42646 -1.52588e-05 8.87129 -1.52588e-05C9.31612 -1.52588e-05 9.67772 0.361592 9.67772 0.806421V1.6016C9.67772 2.0948 9.5332 2.57288 9.25935 2.98319L9.03253 3.22447Z" fill="#F9BA48"/>
<path d="M3.94709 8.06315L3.30191 7.74059H2.25806V2.9019H0V9.0309H2.25806V8.38571H3.14965L3.79484 8.70827H4.19356V8.06308L3.94709 8.06315ZM1.61287 8.38578H0.645189V3.54702H1.61294V8.38578H1.61287Z" fill="#3D5090"/>
<path d="M7.09894 15.1612C7.04057 15.1612 6.98247 15.1602 6.92377 15.1577C4.74633 15.0699 2.94282 13.2245 2.90378 11.0442C2.88346 9.91963 3.30443 8.85613 4.08861 8.04996C4.78024 7.33867 5.16117 6.45128 5.16117 5.55189L6.77405 4.51611L7.41924 5.1613V8.38578H9.6773L10.055 7.99739C10.8518 8.78963 11.2902 9.84414 11.2902 10.9677C11.2902 12.12 10.8324 13.1942 10.0011 13.9926C9.21281 14.7499 8.18769 15.1612 7.09894 15.1612Z" fill="#F9BA48"/>
<path d="M8.70952 10.3212V10.1612C8.70952 9.5386 8.20306 9.03087 7.58046 9.03087H7.41914V8.38568H6.77395V9.03087H6.61264C5.99004 9.03087 5.48364 9.53733 5.48364 10.1599C5.48364 10.7825 5.99011 11.2889 6.61264 11.2889H7.58039C7.84718 11.2889 8.06427 11.506 8.06427 11.7728C8.06427 12.0396 7.84718 12.2567 7.58039 12.2567H6.61271C6.34592 12.2567 6.12883 12.0409 6.12883 11.7741V11.6115H5.48364V11.7741C5.48364 12.3967 5.99011 12.9018 6.61264 12.9018H6.77395V13.547H7.41914V12.9018H7.58046C8.20306 12.9018 8.70952 12.3953 8.70952 11.7728C8.70952 11.1502 8.20306 10.6437 7.58046 10.6437H6.61271C6.34592 10.6437 6.12883 10.4267 6.12883 10.1599C6.12883 9.89308 6.34592 9.67599 6.61271 9.67599H7.58046C7.84725 9.67599 8.06433 9.89441 8.06433 10.1611V10.3211L8.70952 10.3212Z" fill="#3D5090"/>
<path d="M10.071 4.5161C10.2259 4.34446 10.3226 4.11898 10.3226 3.87032C10.3226 3.3368 9.88844 2.9019 9.35486 2.9019H8.15423L7.92969 2.62125L5.40876 1.9003L3.43168 3.54702H1.93555V4.19221H3.66522L5.55941 2.61445L7.55455 3.18475L8.23326 4.03283C8.32294 4.1451 8.36259 4.28576 8.34453 4.42828C8.32647 4.57088 8.25291 4.69734 8.13777 4.78343C7.92968 4.93955 7.63391 4.91856 7.44941 4.73439L6.79842 4.0834L4.96007 5.55415L5.36299 6.05802L6.75038 4.94801L6.99298 5.19088C7.0285 5.22639 7.06814 5.25538 7.10719 5.28536C7.13071 5.52084 7.21653 5.65923 7.34846 5.80535C7.19361 5.97699 7.09686 6.20214 7.09686 6.45081C7.09686 6.69947 7.19394 6.92469 7.34846 7.096C7.19361 7.26764 7.09686 7.49179 7.09686 7.74052C7.09686 8.2747 7.53103 8.70827 8.06461 8.70827H9.35492C9.88844 8.70827 10.3227 8.2747 10.3227 7.74119C10.3227 7.49245 10.2256 7.26797 10.0711 7.09633C10.2259 6.92469 10.3227 6.70021 10.3227 6.45114C10.3227 6.20214 10.2256 5.97759 10.0711 5.80595C10.2259 5.63431 10.3227 5.40949 10.3227 5.16076C10.3226 4.91223 10.2255 4.68768 10.071 4.5161ZM9.35486 8.06315H8.06455C7.88677 8.06315 7.74199 7.91829 7.74199 7.74059C7.74199 7.56281 7.88684 7.41802 8.06455 7.41802H9.35486C9.53263 7.41802 9.67742 7.56288 9.67742 7.74059C9.67749 7.91836 9.53263 8.06315 9.35486 8.06315ZM9.35486 6.77283H8.06455C7.88677 6.77283 7.74199 6.62798 7.74199 6.45027C7.74199 6.2725 7.88684 6.12771 8.06455 6.12771H9.35486C9.53263 6.12771 9.67742 6.27257 9.67742 6.45027C9.67749 6.62805 9.53263 6.77283 9.35486 6.77283ZM9.35486 5.48252H8.1597C8.28843 5.44414 8.41263 5.38411 8.52483 5.29995C8.68741 5.17802 8.80742 5.0177 8.88744 4.8374H9.35486C9.53263 4.8374 9.67742 4.98226 9.67742 5.15996C9.67742 5.33767 9.53263 5.48252 9.35486 5.48252ZM9.35486 4.19221H8.97646C8.94681 3.98899 8.86905 3.79542 8.73679 3.62998L8.67036 3.54709H9.35486C9.53263 3.54709 9.67742 3.69194 9.67742 3.86965C9.67749 4.04735 9.53263 4.19221 9.35486 4.19221Z" fill="#3D5090"/>
<path d="M17.742 15.16V16.1277H15.5817L14.6952 15.5368L11.9765 14.5725C11.7178 14.4816 11.4401 14.5 11.1955 14.6242C10.9507 14.7484 10.7723 14.9613 10.6926 15.2239C10.5549 15.6784 10.7594 16.1703 11.1788 16.3929L11.8771 16.7638L10.8617 16.767L10.4442 15.7232C10.3068 15.3812 9.97999 15.16 9.61099 15.16C9.32294 15.16 9.05069 15.3 8.88258 15.5335C8.71453 15.7677 8.66902 16.0703 8.76097 16.3432L8.85872 16.6328L8.15097 16.2461C7.92582 16.1225 7.65676 16.0987 7.41323 16.1809C7.16969 16.2622 6.96933 16.4432 6.86352 16.677C6.65643 17.1344 6.84706 17.667 7.29742 17.8893L8.8897 18.6751L12.1949 19.3473L16.4836 19.3535L17.742 19.1019V19.9987H20V15.16H17.742ZM9.4065 15.91C9.5149 15.759 9.77617 15.791 9.84486 15.9632L10.1674 16.7693L9.58613 16.7712L9.37258 16.137C9.34646 16.0593 9.35872 15.9767 9.4065 15.91ZM16.4197 18.7083H12.29L9.13711 18.0777L7.58293 17.3109C7.44647 17.2435 7.38844 17.0819 7.45134 16.9428C7.48392 16.8709 7.54296 16.8174 7.61812 16.7925C7.69261 16.7667 7.77263 16.7741 7.842 16.8125L8.95007 17.418H12.0117L13.2846 16.7815L11.4817 15.8231C11.334 15.7445 11.2617 15.5712 11.3101 15.4109C11.3381 15.3183 11.401 15.2429 11.4875 15.1993C11.5737 15.1551 11.6717 15.1493 11.763 15.1809L14.3714 16.0961L15.3862 16.7728H17.7421V18.4438L16.4197 18.7083ZM19.3549 19.3535H18.3871V15.8051H19.3549V19.3535Z" fill="#3D5090"/>
</svg>
