<svg width="22" height="29" viewBox="0 0 22 29" fill="none" xmlns="http://www.w3.org/2000/svg">
<path d="M0 20.8599V26.3599C0 27.3732 0.819973 28.1932 1.83332 28.1932H20.1667C21.18 28.1932 22 27.3732 22 26.3599V20.8599C22 17.8217 19.5402 15.3599 16.5 15.3599H16.0299C15.7833 15.3599 15.5857 15.5604 15.562 15.8058C15.3378 18.1281 13.381 19.9433 10.9999 19.9433C8.61877 19.9433 6.66207 18.1281 6.43796 15.8058C6.41432 15.5604 6.21667 15.3599 5.97005 15.3599H5.4999C2.46342 15.3599 0 17.8217 0 20.8599Z" fill="#3D5090"/>
<path d="M11.0002 15.0736C14.6417 15.0736 17.5949 11.6989 17.5949 7.53671C17.5949 3.37449 14.6417 0 11.0002 0C7.35874 0 4.40552 3.37463 4.40552 7.5369C4.40552 11.6991 7.35874 15.0736 11.0002 15.0736ZM11.0002 7.5369C12.7208 7.5369 14.156 6.66659 14.6085 5.48346C15.2857 6.29945 15.7107 7.33448 15.7107 8.47909C15.7107 11.0809 13.6001 13.1896 11.0002 13.1896C8.39839 13.1896 6.28975 11.0809 6.28975 8.47909C6.28975 7.33448 9.27969 7.5369 11.0002 7.5369Z" fill="#3D5090"/>
</svg>
