<svg width="37" height="23" viewBox="0 0 37 23" fill="none" xmlns="http://www.w3.org/2000/svg">
<path fill-rule="evenodd" clip-rule="evenodd" d="M13.4971 20.2645H23.5022V2.42578H13.4971V20.2645Z" fill="#FF5F00"/>
<path fill-rule="evenodd" clip-rule="evenodd" d="M14.1327 11.3452C14.1327 7.72618 15.8405 4.50294 18.5 2.42586C16.5549 0.906582 14.1009 0.000244141 11.4335 0.000244141C5.11883 0.000244141 0 5.07964 0 11.3452C0 17.6108 5.11883 22.6902 11.4335 22.6902C14.1009 22.6902 16.5549 21.7839 18.5 20.2646C15.8405 18.1872 14.1327 14.9643 14.1327 11.3452Z" fill="#EB001B"/>
<path fill-rule="evenodd" clip-rule="evenodd" d="M36.643 18.3751V17.9348H36.5271L36.394 18.2377L36.2606 17.9348H36.1446V18.3751H36.2263V18.0429L36.3514 18.3294H36.4362L36.5614 18.0423V18.3751H36.643ZM35.909 18.3751V18.0098H36.0576V17.9355H35.6796V18.0098H35.828V18.3751H35.909ZM37 11.345C37 17.6106 31.8809 22.69 25.5665 22.69C22.8991 22.69 20.4448 21.7836 18.5 20.2643C21.1595 18.1873 22.8673 14.964 22.8673 11.345C22.8673 7.72625 21.1595 4.50301 18.5 2.42562C20.4448 0.906338 22.8991 0 25.5665 0C31.8809 0 37 5.0794 37 11.345Z" fill="#F79E1B"/>
</svg>
