<svg width="18" height="11" viewBox="0 0 18 11" fill="none" xmlns="http://www.w3.org/2000/svg">
<path d="M6.3 2.025C6.3 3.1437 5.3937 4.05 4.275 4.05C4.00906 4.05006 3.74571 3.99772 3.5 3.89598C3.25429 3.79423 3.03103 3.64507 2.84298 3.45702C2.65493 3.26897 2.50577 3.04572 2.40402 2.8C2.30228 2.55429 2.24994 2.29094 2.25 2.025C2.25 0.9063 3.1563 0 4.275 0C5.3937 0 6.3 0.9063 6.3 2.025Z" fill="white"/>
<path d="M0 7.3498C0 5.7541 2.8485 4.94995 4.275 4.94995C5.7015 4.94995 8.55 5.7541 8.55 7.3498V10.8H0V7.3498Z" fill="white"/>
<path d="M15.7502 2.025C15.7502 3.1437 14.8439 4.05 13.7252 4.05C13.4593 4.05006 13.1959 3.99772 12.9502 3.89598C12.7045 3.79423 12.4812 3.64507 12.2932 3.45702C12.1051 3.26897 11.956 3.04572 11.8542 2.8C11.7525 2.55429 11.7001 2.29094 11.7002 2.025C11.7002 0.9063 12.6065 0 13.7252 0C14.8439 0 15.7502 0.9063 15.7502 2.025Z" fill="white"/>
<path d="M10.3499 1.35C10.3499 1.70804 10.2077 2.05142 9.9545 2.30459C9.70132 2.55777 9.35794 2.7 8.9999 2.7C8.64186 2.7 8.29848 2.55777 8.04531 2.30459C7.79213 2.05142 7.6499 1.70804 7.6499 1.35C7.6499 0.991958 7.79213 0.64858 8.04531 0.395406C8.29848 0.142232 8.64186 0 8.9999 0C9.35794 0 9.70132 0.142232 9.9545 0.395406C10.2077 0.64858 10.3499 0.991958 10.3499 1.35Z" fill="white"/>
<path d="M9.4502 7.3498C9.4502 5.7541 12.2987 4.94995 13.7252 4.94995C15.1517 4.94995 18.0002 5.7541 18.0002 7.3498V10.8H9.4502V7.3498Z" fill="white"/>
<path fill-rule="evenodd" clip-rule="evenodd" d="M11.1378 4.5833C11.0181 4.6274 10.8993 4.6742 10.7832 4.72415C10.2567 4.94915 9.7243 5.25335 9.31075 5.66015C9.20005 5.7695 9.09475 5.88875 9.00025 6.0188C8.90667 5.89101 8.80282 5.77107 8.68975 5.66015C8.2762 5.25335 7.7443 4.94915 7.2169 4.72415C7.09993 4.67416 6.98169 4.6272 6.8623 4.5833C7.54765 4.22825 8.42875 4.05005 9.00025 4.05005C9.57175 4.05005 10.4529 4.22825 11.1378 4.5833Z" fill="white"/>
</svg>
