<svg width="14" height="14" viewBox="0 0 14 14" fill="none" xmlns="http://www.w3.org/2000/svg">
<path fill-rule="evenodd" clip-rule="evenodd" d="M1.16667 0.7C0.953666 0.7 0.777778 0.8583 0.777778 1.05V12.9218L2.0904 11.9767C2.22264 11.8815 2.40814 11.8742 2.54905 11.9588L4.66667 13.2294L6.78428 11.9588C6.91491 11.8804 7.08509 11.8804 7.21572 11.9588L9.33333 13.2294L11.4509 11.9588C11.5919 11.8742 11.7774 11.8815 11.9096 11.9767L13.2222 12.9218V1.05C13.2222 0.8583 13.0463 0.7 12.8333 0.7H1.16667ZM0 1.05C0 0.4717 0.524112 0 1.16667 0H12.8333C13.4759 0 14 0.4717 14 1.05V13.65C14 13.7845 13.9143 13.9072 13.7796 13.9655C13.6448 14.0237 13.4849 14.0073 13.3682 13.9233L11.6458 12.6832L9.54905 13.9412C9.41842 14.0196 9.24824 14.0196 9.11762 13.9412L7 12.6706L4.88238 13.9412C4.75176 14.0196 4.58158 14.0196 4.45095 13.9412L2.35422 12.6832L0.631826 13.9233C0.515093 14.0073 0.355163 14.0237 0.220427 13.9655C0.08569 13.9072 0 13.7845 0 13.65V1.05Z" fill="#3D5090"/>
<path fill-rule="evenodd" clip-rule="evenodd" d="M2.3335 3.15005C2.3335 2.95675 2.50761 2.80005 2.72238 2.80005H11.2779C11.4927 2.80005 11.6668 2.95675 11.6668 3.15005C11.6668 3.34335 11.4927 3.50005 11.2779 3.50005H2.72238C2.50761 3.50005 2.3335 3.34335 2.3335 3.15005Z" fill="#3D5090"/>
<path fill-rule="evenodd" clip-rule="evenodd" d="M2.3335 5.25002C2.3335 5.05672 2.50761 4.90002 2.72238 4.90002H11.2779C11.4927 4.90002 11.6668 5.05672 11.6668 5.25002C11.6668 5.44332 11.4927 5.60002 11.2779 5.60002H2.72238C2.50761 5.60002 2.3335 5.44332 2.3335 5.25002Z" fill="#3D5090"/>
<path fill-rule="evenodd" clip-rule="evenodd" d="M2.3335 7.35C2.3335 7.1567 2.50761 7 2.72238 7H11.2779C11.4927 7 11.6668 7.1567 11.6668 7.35C11.6668 7.5433 11.4927 7.7 11.2779 7.7H2.72238C2.50761 7.7 2.3335 7.5433 2.3335 7.35Z" fill="#3D5090"/>
<path fill-rule="evenodd" clip-rule="evenodd" d="M2.3335 9.44998C2.3335 9.25668 2.50761 9.09998 2.72238 9.09998H11.2779C11.4927 9.09998 11.6668 9.25668 11.6668 9.44998C11.6668 9.64328 11.4927 9.79998 11.2779 9.79998H2.72238C2.50761 9.79998 2.3335 9.64328 2.3335 9.44998Z" fill="#3D5090"/>
</svg>
