<svg width="40" height="40" viewBox="0 0 40 40" fill="none" xmlns="http://www.w3.org/2000/svg">
<path d="M34.4 21.7229C35.2837 21.7229 36.0083 22.441 35.9201 23.3203C35.5533 26.9771 33.9354 30.4149 31.3137 33.0366C28.3131 36.0372 24.2435 37.7229 20 37.7229C15.7565 37.7229 11.6869 36.0372 8.6863 33.0366C6.06461 30.4149 4.44669 26.9771 4.07989 23.3203C3.9917 22.4411 4.71634 21.7229 5.6 21.7229V21.7229C6.48366 21.7229 7.18967 22.442 7.29983 23.3188C7.65241 26.1251 8.92785 28.7527 10.949 30.7739C13.3495 33.1743 16.6052 34.5229 20 34.5229C23.3948 34.5229 26.6505 33.1743 29.051 30.7739C31.0722 28.7527 32.3476 26.1251 32.7002 23.3188C32.8103 22.442 33.5163 21.7229 34.4 21.7229V21.7229Z" fill="#3D5090"/>
<path d="M16.1153 5.85662C15.8769 5.00572 16.373 4.11424 17.2434 3.96202C19.1948 3.62077 21.1974 3.64407 23.1487 4.03579C25.6243 4.53274 27.9471 5.60854 29.9273 7.17522C31.9074 8.7419 33.4886 10.755 34.5417 13.0499C35.3718 14.8588 35.8551 16.8023 35.9718 18.7798C36.0239 19.662 35.2704 20.3497 34.3875 20.3135V20.3135C33.5046 20.2773 32.8287 19.5298 32.7546 18.6493C32.6307 17.1775 32.2526 15.7341 31.6333 14.3845C30.7908 12.5485 29.5258 10.9381 27.9417 9.68474C26.3576 8.4314 24.4994 7.57076 22.5189 7.1732C21.0629 6.88093 19.5713 6.84503 18.1105 7.06301C17.2366 7.19342 16.3537 6.70752 16.1153 5.85662V5.85662Z" fill="#3D5090" fill-opacity="0.2"/>
<path d="M5.63567 20.735C4.7542 20.7971 3.98088 20.1317 4.00709 19.2484C4.09085 16.425 4.92124 13.6637 6.42686 11.2514C7.93248 8.83907 10.0483 6.88002 12.5478 5.56442C13.3298 5.15285 14.2673 5.55522 14.5987 6.37436V6.37436C14.9302 7.19349 14.5284 8.11772 13.757 8.54871C11.8798 9.59748 10.2891 11.107 9.1415 12.9457C7.9939 14.7844 7.33666 16.8765 7.21917 19.0236C7.17089 19.9059 6.51714 20.6729 5.63567 20.735V20.735Z" fill="#3D5090" fill-opacity="0.5"/>
</svg>
