<svg width="11" height="9" viewBox="0 0 11 9" fill="none" xmlns="http://www.w3.org/2000/svg">
<path d="M8.56515 3.65222C9.17641 2.9421 9.51912 2.54396 10.1304 1.83384M8.56515 3.65222L6.99994 1.83384M8.56515 3.65222L8.56515 4.76963e-05" stroke="#3D5090" stroke-width="0.5"/>
<path d="M4 0C3.56049 0 3.13084 0.130331 2.7654 0.374512C2.39996 0.618693 2.11513 0.965757 1.94693 1.37181C1.77874 1.77787 1.73473 2.22469 1.82048 2.65576C1.90622 3.08683 2.11787 3.48279 2.42865 3.79357C2.73943 4.10435 3.1354 4.316 3.56647 4.40175C3.99753 4.48749 4.44435 4.44348 4.85041 4.27529C5.25647 4.10709 5.60353 3.82227 5.84771 3.45682C6.09189 3.09138 6.22222 2.66174 6.22222 2.22222C6.22222 1.63285 5.9881 1.06762 5.57135 0.650874C5.1546 0.234126 4.58937 0 4 0V0ZM4 3.55556C3.73629 3.55556 3.47851 3.47736 3.25924 3.33085C3.03997 3.18434 2.86908 2.9761 2.76816 2.73247C2.66724 2.48883 2.64084 2.22074 2.69229 1.9621C2.74373 1.70346 2.87072 1.46588 3.05719 1.27941C3.24366 1.09294 3.48124 0.965956 3.73988 0.914509C3.99852 0.863062 4.26661 0.889466 4.51024 0.990383C4.75388 1.0913 4.96212 1.2622 5.10863 1.48146C5.25513 1.70073 5.33333 1.95851 5.33333 2.22222C5.33333 2.57584 5.19286 2.91498 4.94281 3.16503C4.69276 3.41508 4.35362 3.55556 4 3.55556V3.55556ZM8 8.44444V8C8 7.17488 7.67222 6.38356 7.08878 5.80011C6.50533 5.21667 5.71401 4.88889 4.88889 4.88889H3.11111C2.28599 4.88889 1.49467 5.21667 0.911223 5.80011C0.327777 6.38356 0 7.17488 0 8V8.44444H0.888889V8C0.888889 7.41063 1.12302 6.8454 1.53976 6.42865C1.95651 6.0119 2.52174 5.77778 3.11111 5.77778H4.88889C5.47826 5.77778 6.04349 6.0119 6.46024 6.42865C6.87698 6.8454 7.11111 7.41063 7.11111 8V8.44444H8Z" fill="#3D5090"/>
</svg>
