<svg width="11" height="10" viewBox="0 0 11 10" fill="none" xmlns="http://www.w3.org/2000/svg">
<path d="M8.56522 1C7.95396 1.71012 7.61126 2.10826 7 2.81838M8.56522 1L10.1304 2.81838M8.56522 1V4.65217" stroke="#3D5090" stroke-width="0.5"/>
<path d="M4 1C3.56049 1 3.13084 1.13033 2.7654 1.37451C2.39996 1.61869 2.11513 1.96576 1.94693 2.37181C1.77874 2.77787 1.73473 3.22469 1.82048 3.65576C1.90622 4.08683 2.11787 4.48279 2.42865 4.79357C2.73943 5.10435 3.1354 5.316 3.56647 5.40175C3.99753 5.48749 4.44435 5.44348 4.85041 5.27529C5.25647 5.10709 5.60353 4.82227 5.84771 4.45682C6.09189 4.09138 6.22222 3.66174 6.22222 3.22222C6.22222 2.63285 5.9881 2.06762 5.57135 1.65087C5.1546 1.23413 4.58937 1 4 1V1ZM4 4.55556C3.73629 4.55556 3.47851 4.47736 3.25924 4.33085C3.03997 4.18434 2.86908 3.9761 2.76816 3.73247C2.66724 3.48883 2.64084 3.22074 2.69229 2.9621C2.74373 2.70346 2.87072 2.46588 3.05719 2.27941C3.24366 2.09294 3.48124 1.96596 3.73988 1.91451C3.99852 1.86306 4.26661 1.88947 4.51024 1.99038C4.75388 2.0913 4.96212 2.2622 5.10863 2.48146C5.25513 2.70073 5.33333 2.95851 5.33333 3.22222C5.33333 3.57584 5.19286 3.91498 4.94281 4.16503C4.69276 4.41508 4.35362 4.55556 4 4.55556V4.55556ZM8 9.44444V9C8 8.17488 7.67222 7.38356 7.08878 6.80011C6.50533 6.21667 5.71401 5.88889 4.88889 5.88889H3.11111C2.28599 5.88889 1.49467 6.21667 0.911223 6.80011C0.327777 7.38356 0 8.17488 0 9V9.44444H0.888889V9C0.888889 8.41063 1.12302 7.8454 1.53976 7.42865C1.95651 7.0119 2.52174 6.77778 3.11111 6.77778H4.88889C5.47826 6.77778 6.04349 7.0119 6.46024 7.42865C6.87698 7.8454 7.11111 8.41063 7.11111 9V9.44444H8Z" fill="#3D5090"/>
</svg>
