<svg width="14" height="15" viewBox="0 0 14 15" fill="none" xmlns="http://www.w3.org/2000/svg">
<path d="M8.42219 0C8.53081 3.42291e-06 8.63663 0.0344812 8.7244 0.098468C8.81218 0.162455 8.87738 0.252649 8.91062 0.35606L9.47497 2.10968C9.71201 2.22563 9.93878 2.35595 10.1553 2.50268L11.9571 2.11481C12.0634 2.09213 12.1741 2.10375 12.2733 2.14801C12.3725 2.19227 12.4551 2.26687 12.5092 2.36108L13.9314 4.82271C13.9857 4.91686 14.0087 5.02583 13.9971 5.1339C13.9854 5.24197 13.9398 5.34356 13.8667 5.42401L12.6303 6.78874C12.6483 7.05043 12.6483 7.31305 12.6303 7.57474L13.8667 8.94152C13.9398 9.02197 13.9854 9.12356 13.9971 9.23163C14.0087 9.3397 13.9857 9.44866 13.9314 9.54282L12.5092 12.0055C12.4549 12.0995 12.3723 12.1739 12.2731 12.218C12.1739 12.262 12.0633 12.2735 11.9571 12.2507L10.1553 11.8628C9.9398 12.0086 9.71201 12.1399 9.476 12.2558L8.91062 14.0095C8.87738 14.1129 8.81218 14.2031 8.7244 14.2671C8.63663 14.331 8.53081 14.3655 8.42219 14.3655H5.57781C5.46919 14.3655 5.36337 14.331 5.2756 14.2671C5.18782 14.2031 5.12262 14.1129 5.08938 14.0095L4.52605 12.2569C4.28965 12.1413 4.06164 12.0093 3.84369 11.8618L2.04287 12.2507C1.93663 12.2734 1.82593 12.2618 1.72672 12.2175C1.62751 12.1733 1.54491 12.0987 1.49082 12.0045L0.068632 9.54282C0.0143246 9.44866 -0.00867828 9.3397 0.00294005 9.23163C0.0145584 9.12356 0.0601975 9.02197 0.133277 8.94152L1.36974 7.57474C1.35183 7.31373 1.35183 7.0518 1.36974 6.79079L0.133277 5.42401C0.0601975 5.34356 0.0145584 5.24197 0.00294005 5.1339C-0.00867828 5.02583 0.0143246 4.91686 0.068632 4.82271L1.49082 2.36005C1.54506 2.26603 1.62773 2.19164 1.72692 2.14757C1.82612 2.10351 1.93674 2.09204 2.04287 2.11481L3.84369 2.50371C4.06122 2.35697 4.28902 2.22461 4.52605 2.10865L5.09041 0.35606C5.12354 0.252982 5.18843 0.163027 5.27579 0.0990708C5.36316 0.0351149 5.46851 0.000436781 5.57679 0H8.42219ZM8.04663 1.02611H5.95337L5.37054 2.83924L4.97754 3.03113C4.78434 3.12567 4.59784 3.23332 4.41933 3.35333L4.05609 3.59959L2.19268 3.19736L1.14605 5.01152L2.42355 6.4255L2.39277 6.86057C2.37803 7.07511 2.37803 7.29042 2.39277 7.50496L2.42355 7.94003L1.14399 9.35401L2.19165 11.1682L4.05507 10.767L4.41831 11.0122C4.59681 11.1322 4.78331 11.2399 4.97651 11.3344L5.36951 11.5263L5.95337 13.3394H8.04868L8.63357 11.5253L9.02554 11.3344C9.21853 11.2401 9.4047 11.1324 9.58272 11.0122L9.94493 10.767L11.8094 11.1682L12.856 9.35401L11.5775 7.94003L11.6083 7.50496C11.623 7.29008 11.623 7.07443 11.6083 6.85954L11.5775 6.42447L12.857 5.01152L11.8094 3.19736L9.94493 3.59754L9.58272 3.35333C9.40472 3.23308 9.21854 3.12542 9.02554 3.03113L8.63357 2.84027L8.04663 1.02611ZM7 4.10444C7.81642 4.10444 8.59941 4.42876 9.17671 5.00606C9.75401 5.58336 10.0783 6.36634 10.0783 7.18277C10.0783 7.99919 9.75401 8.78217 9.17671 9.35947C8.59941 9.93677 7.81642 10.2611 7 10.2611C6.18358 10.2611 5.40059 9.93677 4.82329 9.35947C4.246 8.78217 3.92167 7.99919 3.92167 7.18277C3.92167 6.36634 4.246 5.58336 4.82329 5.00606C5.40059 4.42876 6.18358 4.10444 7 4.10444ZM7 5.13055C6.45572 5.13055 5.93373 5.34676 5.54886 5.73163C5.164 6.11649 4.94778 6.63848 4.94778 7.18277C4.94778 7.72705 5.164 8.24904 5.54886 8.6339C5.93373 9.01877 6.45572 9.23498 7 9.23498C7.54428 9.23498 8.06627 9.01877 8.45114 8.6339C8.836 8.24904 9.05222 7.72705 9.05222 7.18277C9.05222 6.63848 8.836 6.11649 8.45114 5.73163C8.06627 5.34676 7.54428 5.13055 7 5.13055Z" fill="#3D5090"/>
</svg>
