<svg width="224" height="216" viewBox="0 0 224 216" fill="none" xmlns="http://www.w3.org/2000/svg">
<ellipse cx="107.5" cy="108" rx="107.5" ry="108" fill="white"/>
<rect x="108" y="33" width="150" height="0.999992" transform="rotate(90 108 33)" fill="#ECECEC"/>
<path d="M108 57H219C221.761 57 224 59.2386 224 62V73C224 75.7614 221.761 78 219 78H108V57Z" fill="#79EA86"/>
<path d="M108 149H175C177.761 149 180 151.239 180 154V165C180 167.761 177.761 170 175 170H108V149Z" fill="#79EA86"/>
<path d="M107 124L34 124C31.2386 124 29 121.761 29 119L29 108C29 105.239 31.2386 103 34 103L107 103L107 124Z" fill="#E75757"/>
<path d="M63.1088 72V63.2727H66.3816C67.052 63.2727 67.6145 63.3892 68.0691 63.6222C68.5265 63.8551 68.8716 64.1818 69.1046 64.6023C69.3404 65.0199 69.4583 65.5071 69.4583 66.0639C69.4583 66.6236 69.339 67.1094 69.1003 67.5213C68.8645 67.9304 68.5165 68.2472 68.0563 68.4716C67.5961 68.6932 67.0307 68.804 66.3603 68.804H64.0293V67.4915H66.1472C66.5392 67.4915 66.8603 67.4375 67.1103 67.3295C67.3603 67.2187 67.5449 67.0582 67.6642 66.848C67.7864 66.6349 67.8475 66.3736 67.8475 66.0639C67.8475 65.7543 67.7864 65.4901 67.6642 65.2713C67.5421 65.0497 67.356 64.8821 67.106 64.7685C66.856 64.652 66.5336 64.5938 66.1387 64.5938H64.6898V72H63.1088ZM67.6174 68.0455L69.7779 72H68.0137L65.8915 68.0455H67.6174ZM72.7289 72.1321C72.3141 72.1321 71.9405 72.0582 71.6081 71.9105C71.2786 71.7599 71.0172 71.5384 70.824 71.2457C70.6337 70.9531 70.5385 70.5923 70.5385 70.1634C70.5385 69.794 70.6067 69.4886 70.7431 69.2472C70.8794 69.0057 71.0655 68.8125 71.3013 68.6676C71.5371 68.5227 71.8027 68.4134 72.0982 68.3395C72.3965 68.2628 72.7047 68.2074 73.0229 68.1733C73.4064 68.1335 73.7175 68.098 73.9561 68.0668C74.1948 68.0327 74.3681 67.9815 74.476 67.9134C74.5868 67.8423 74.6422 67.733 74.6422 67.5852V67.5597C74.6422 67.2386 74.5471 66.9901 74.3567 66.8139C74.1664 66.6378 73.8922 66.5497 73.5343 66.5497C73.1564 66.5497 72.8567 66.6321 72.6351 66.7969C72.4164 66.9616 72.2686 67.1562 72.1919 67.3807L70.7516 67.1761C70.8652 66.7784 71.0527 66.446 71.3141 66.179C71.5755 65.9091 71.8951 65.7074 72.2729 65.5739C72.6507 65.4375 73.0684 65.3693 73.5257 65.3693C73.8411 65.3693 74.155 65.4062 74.4675 65.4801C74.78 65.554 75.0655 65.6761 75.324 65.8466C75.5826 66.0142 75.79 66.2429 75.9462 66.5327C76.1053 66.8224 76.1848 67.1847 76.1848 67.6193V72H74.7019V71.1009H74.6507C74.557 71.2827 74.4249 71.4531 74.2544 71.6122C74.0868 71.7685 73.8752 71.8949 73.6195 71.9915C73.3667 72.0852 73.0698 72.1321 72.7289 72.1321ZM73.1294 70.9986C73.4391 70.9986 73.7076 70.9375 73.9348 70.8153C74.1621 70.6903 74.3368 70.5256 74.459 70.321C74.584 70.1165 74.6465 69.8935 74.6465 69.652V68.8807C74.5982 68.9205 74.5158 68.9574 74.3993 68.9915C74.2857 69.0256 74.1578 69.0554 74.0158 69.081C73.8738 69.1065 73.7331 69.1293 73.5939 69.1491C73.4547 69.169 73.334 69.1861 73.2317 69.2003C73.0016 69.2315 72.7956 69.2827 72.6138 69.3537C72.432 69.4247 72.2885 69.5241 72.1834 69.652C72.0783 69.777 72.0257 69.9389 72.0257 70.1378C72.0257 70.4219 72.1294 70.6364 72.3368 70.7812C72.5442 70.9261 72.8084 70.9986 73.1294 70.9986ZM83.3482 65.4545L81.0172 72H79.3127L76.9817 65.4545H78.6266L80.1309 70.3168H80.199L81.7076 65.4545H83.3482ZM84.4157 72V65.4545H85.9583V72H84.4157ZM85.1912 64.5256C84.9469 64.5256 84.7367 64.4446 84.5605 64.2827C84.3844 64.1179 84.2963 63.9205 84.2963 63.6903C84.2963 63.4574 84.3844 63.2599 84.5605 63.098C84.7367 62.9332 84.9469 62.8509 85.1912 62.8509C85.4384 62.8509 85.6486 62.9332 85.8219 63.098C85.998 63.2599 86.0861 63.4574 86.0861 63.6903C86.0861 63.9205 85.998 64.1179 85.8219 64.2827C85.6486 64.4446 85.4384 64.5256 85.1912 64.5256Z" fill="#3D5090"/>
<path d="M129.121 118V109.273H132.393C133.064 109.273 133.626 109.389 134.081 109.622C134.538 109.855 134.883 110.182 135.116 110.602C135.352 111.02 135.47 111.507 135.47 112.064C135.47 112.624 135.351 113.109 135.112 113.521C134.876 113.93 134.528 114.247 134.068 114.472C133.608 114.693 133.042 114.804 132.372 114.804H130.041V113.491H132.159C132.551 113.491 132.872 113.437 133.122 113.33C133.372 113.219 133.557 113.058 133.676 112.848C133.798 112.635 133.859 112.374 133.859 112.064C133.859 111.754 133.798 111.49 133.676 111.271C133.554 111.05 133.368 110.882 133.118 110.768C132.868 110.652 132.545 110.594 132.15 110.594H130.702V118H129.121ZM133.629 114.045L135.79 118H134.025L131.903 114.045H133.629ZM136.857 118V111.455H138.4V118H136.857ZM137.633 110.526C137.388 110.526 137.178 110.445 137.002 110.283C136.826 110.118 136.738 109.92 136.738 109.69C136.738 109.457 136.826 109.26 137.002 109.098C137.178 108.933 137.388 108.851 137.633 108.851C137.88 108.851 138.09 108.933 138.263 109.098C138.439 109.26 138.528 109.457 138.528 109.69C138.528 109.92 138.439 110.118 138.263 110.283C138.09 110.445 137.88 110.526 137.633 110.526ZM143.254 111.455V112.648H139.492V111.455H143.254ZM140.421 109.886H141.963V116.031C141.963 116.239 141.994 116.398 142.057 116.509C142.122 116.616 142.208 116.69 142.313 116.73C142.418 116.77 142.534 116.79 142.662 116.79C142.759 116.79 142.847 116.783 142.926 116.768C143.009 116.754 143.071 116.741 143.114 116.73L143.374 117.936C143.291 117.964 143.173 117.996 143.02 118.03C142.869 118.064 142.685 118.084 142.466 118.089C142.08 118.101 141.732 118.043 141.422 117.915C141.112 117.784 140.867 117.582 140.685 117.31C140.506 117.037 140.418 116.696 140.421 116.287V109.886ZM147.372 118.128C146.716 118.128 146.149 117.991 145.672 117.719C145.197 117.443 144.832 117.054 144.577 116.551C144.321 116.045 144.193 115.45 144.193 114.766C144.193 114.092 144.321 113.501 144.577 112.993C144.835 112.482 145.196 112.084 145.659 111.8C146.122 111.513 146.666 111.369 147.291 111.369C147.694 111.369 148.075 111.435 148.433 111.565C148.794 111.693 149.112 111.892 149.388 112.162C149.666 112.432 149.885 112.776 150.044 113.193C150.203 113.608 150.282 114.102 150.282 114.676V115.149H144.917V114.109H148.804C148.801 113.814 148.737 113.551 148.612 113.321C148.487 113.088 148.312 112.905 148.088 112.771C147.866 112.638 147.608 112.571 147.312 112.571C146.997 112.571 146.72 112.648 146.481 112.801C146.243 112.952 146.057 113.151 145.923 113.398C145.792 113.642 145.726 113.911 145.723 114.203V115.111C145.723 115.491 145.792 115.818 145.932 116.091C146.071 116.361 146.265 116.568 146.515 116.713C146.765 116.855 147.058 116.926 147.393 116.926C147.618 116.926 147.821 116.895 148.003 116.832C148.184 116.767 148.342 116.672 148.476 116.547C148.609 116.422 148.71 116.267 148.778 116.082L150.219 116.244C150.128 116.625 149.954 116.957 149.699 117.241C149.446 117.523 149.122 117.741 148.727 117.898C148.332 118.051 147.881 118.128 147.372 118.128ZM156.761 113.185L155.355 113.338C155.315 113.196 155.245 113.062 155.146 112.938C155.049 112.812 154.919 112.712 154.754 112.635C154.589 112.558 154.387 112.52 154.149 112.52C153.828 112.52 153.558 112.589 153.339 112.729C153.123 112.868 153.017 113.048 153.019 113.27C153.017 113.46 153.086 113.615 153.228 113.734C153.373 113.854 153.612 113.952 153.944 114.028L155.061 114.267C155.68 114.401 156.14 114.612 156.441 114.902C156.745 115.192 156.899 115.571 156.901 116.04C156.899 116.452 156.778 116.815 156.539 117.131C156.303 117.443 155.975 117.687 155.555 117.864C155.134 118.04 154.651 118.128 154.106 118.128C153.305 118.128 152.66 117.96 152.171 117.625C151.683 117.287 151.392 116.817 151.298 116.214L152.802 116.07C152.87 116.365 153.015 116.588 153.237 116.739C153.458 116.889 153.747 116.964 154.102 116.964C154.468 116.964 154.762 116.889 154.984 116.739C155.208 116.588 155.32 116.402 155.32 116.18C155.32 115.993 155.248 115.838 155.103 115.716C154.961 115.594 154.74 115.5 154.438 115.435L153.322 115.2C152.694 115.07 152.23 114.849 151.928 114.54C151.627 114.227 151.478 113.832 151.481 113.355C151.478 112.952 151.588 112.602 151.809 112.307C152.034 112.009 152.345 111.778 152.742 111.616C153.143 111.452 153.605 111.369 154.127 111.369C154.894 111.369 155.498 111.533 155.938 111.859C156.382 112.186 156.656 112.628 156.761 113.185ZM159.716 114.165V118H158.173V109.273H159.682V112.567H159.759C159.912 112.197 160.149 111.906 160.47 111.693C160.794 111.477 161.206 111.369 161.706 111.369C162.161 111.369 162.557 111.464 162.895 111.655C163.233 111.845 163.494 112.124 163.679 112.49C163.867 112.857 163.96 113.304 163.96 113.832V118H162.418V114.071C162.418 113.631 162.304 113.288 162.077 113.044C161.852 112.797 161.537 112.673 161.131 112.673C160.858 112.673 160.614 112.733 160.398 112.852C160.185 112.969 160.017 113.138 159.895 113.359C159.776 113.581 159.716 113.849 159.716 114.165Z" fill="#3D5090"/>
<path d="M69.9487 164V155.273H73.2214C73.8919 155.273 74.4544 155.389 74.9089 155.622C75.3663 155.855 75.7115 156.182 75.9444 156.602C76.1802 157.02 76.2981 157.507 76.2981 158.064C76.2981 158.624 76.1788 159.109 75.9402 159.521C75.7044 159.93 75.3564 160.247 74.8961 160.472C74.4359 160.693 73.8706 160.804 73.2001 160.804H70.8691V159.491H72.987C73.3791 159.491 73.7001 159.437 73.9501 159.33C74.2001 159.219 74.3848 159.058 74.5041 158.848C74.6262 158.635 74.6873 158.374 74.6873 158.064C74.6873 157.754 74.6262 157.49 74.5041 157.271C74.3819 157.05 74.1958 156.882 73.9458 156.768C73.6958 156.652 73.3734 156.594 72.9785 156.594H71.5297V164H69.9487ZM74.4572 160.045L76.6177 164H74.8535L72.7314 160.045H74.4572ZM79.5687 164.132C79.1539 164.132 78.7804 164.058 78.448 163.911C78.1184 163.76 77.8571 163.538 77.6639 163.246C77.4735 162.953 77.3784 162.592 77.3784 162.163C77.3784 161.794 77.4466 161.489 77.5829 161.247C77.7193 161.006 77.9054 160.812 78.1412 160.668C78.377 160.523 78.6426 160.413 78.938 160.339C79.2363 160.263 79.5446 160.207 79.8627 160.173C80.2463 160.134 80.5574 160.098 80.796 160.067C81.0346 160.033 81.2079 159.982 81.3159 159.913C81.4267 159.842 81.4821 159.733 81.4821 159.585V159.56C81.4821 159.239 81.3869 158.99 81.1966 158.814C81.0062 158.638 80.7321 158.55 80.3741 158.55C79.9963 158.55 79.6966 158.632 79.475 158.797C79.2562 158.962 79.1085 159.156 79.0318 159.381L77.5914 159.176C77.7051 158.778 77.8926 158.446 78.1539 158.179C78.4153 157.909 78.7349 157.707 79.1127 157.574C79.4906 157.438 79.9082 157.369 80.3656 157.369C80.6809 157.369 80.9949 157.406 81.3074 157.48C81.6199 157.554 81.9054 157.676 82.1639 157.847C82.4224 158.014 82.6298 158.243 82.786 158.533C82.9451 158.822 83.0247 159.185 83.0247 159.619V164H81.5417V163.101H81.4906C81.3968 163.283 81.2647 163.453 81.0943 163.612C80.9267 163.768 80.715 163.895 80.4593 163.991C80.2065 164.085 79.9096 164.132 79.5687 164.132ZM79.9693 162.999C80.2789 162.999 80.5474 162.937 80.7747 162.815C81.002 162.69 81.1767 162.526 81.2988 162.321C81.4238 162.116 81.4863 161.893 81.4863 161.652V160.881C81.438 160.92 81.3556 160.957 81.2392 160.991C81.1255 161.026 80.9977 161.055 80.8556 161.081C80.7136 161.107 80.573 161.129 80.4338 161.149C80.2946 161.169 80.1738 161.186 80.0716 161.2C79.8414 161.232 79.6355 161.283 79.4537 161.354C79.2718 161.425 79.1284 161.524 79.0233 161.652C78.9181 161.777 78.8656 161.939 78.8656 162.138C78.8656 162.422 78.9693 162.636 79.1767 162.781C79.3841 162.926 79.6483 162.999 79.9693 162.999ZM84.5758 157.455H86.1184V164.375C86.1184 164.847 86.0289 165.236 85.85 165.543C85.671 165.849 85.4125 166.078 85.0744 166.229C84.7363 166.379 84.3258 166.455 83.8429 166.455C83.786 166.455 83.7335 166.453 83.6852 166.45C83.6369 166.45 83.5843 166.449 83.5275 166.446V165.189C83.5701 165.192 83.6085 165.193 83.6426 165.193C83.6767 165.196 83.7122 165.197 83.7491 165.197C84.0446 165.197 84.2562 165.125 84.3841 164.98C84.5119 164.838 84.5758 164.629 84.5758 164.354V157.455ZM85.3429 156.526C85.0957 156.526 84.8841 156.445 84.7079 156.283C84.5346 156.118 84.448 155.92 84.448 155.69C84.448 155.457 84.5346 155.26 84.7079 155.098C84.8841 154.933 85.0957 154.851 85.3429 154.851C85.5872 154.851 85.796 154.933 85.9693 155.098C86.1454 155.26 86.2335 155.457 86.2335 155.69C86.2335 155.92 86.1454 156.118 85.9693 156.283C85.796 156.445 85.5872 156.526 85.3429 156.526Z" fill="#3D5090"/>
</svg>
