<svg width="12" height="12" viewBox="0 0 12 12" fill="none" xmlns="http://www.w3.org/2000/svg">
<path d="M1.3157 2.6399C1.02503 2.6399 0.746265 2.7579 0.54073 2.96794C0.335195 3.17798 0.219727 3.46286 0.219727 3.7599V10.4799C0.219727 11.0959 0.712915 11.5999 1.3157 11.5999H7.89155C8.18222 11.5999 8.46099 11.4819 8.66652 11.2719C8.87206 11.0618 8.98753 10.7769 8.98753 10.4799H1.3157V2.6399ZM10.0835 0.399902H3.50765C3.21698 0.399902 2.93822 0.517902 2.73268 0.727943C2.52715 0.937983 2.41168 1.22286 2.41168 1.5199V8.2399C2.41168 8.53694 2.52715 8.82182 2.73268 9.03186C2.93822 9.2419 3.21698 9.3599 3.50765 9.3599H10.0835C10.3742 9.3599 10.6529 9.2419 10.8585 9.03186C11.064 8.82182 11.1795 8.53694 11.1795 8.2399V1.5199C11.1795 1.22286 11.064 0.937983 10.8585 0.727943C10.6529 0.517902 10.3742 0.399902 10.0835 0.399902ZM7.34356 8.2399H3.50765V4.3199H7.34356V8.2399ZM10.0835 8.2399H8.43954V4.3199H10.0835V8.2399ZM10.0835 3.1999H3.50765V1.5199H10.0835V3.1999Z" fill="white"/>
</svg>
