<svg width="10" height="10" viewBox="0 0 10 10" fill="none" xmlns="http://www.w3.org/2000/svg">
<path d="M9.9123 3.78628L9.00074 2.87472C8.89232 2.76627 8.71954 2.75728 8.60043 2.85384C8.18859 3.18776 7.59485 3.15634 7.21923 2.78077C6.84367 2.40521 6.81232 1.81144 7.14617 1.3996C7.24275 1.28049 7.23374 1.10769 7.12534 0.99927L6.21375 0.0877043C6.09683 -0.0292228 5.90717 -0.0292468 5.79026 0.0877043L0.0877133 5.79023C-0.0292378 5.90716 -0.0292378 6.09679 0.0877133 6.21372L0.999279 7.12526C0.999375 7.12538 0.999495 7.1255 0.999567 7.12557C1.11649 7.24252 1.30613 7.24252 1.42306 7.12557C1.43394 7.11467 1.44383 7.10312 1.45272 7.09106C1.47316 7.06653 1.49461 7.04299 1.51668 7.0209C1.9199 6.6177 2.5759 6.6177 2.97909 7.02085C3.38226 7.42404 3.38226 8.08011 2.97907 8.48325C2.9537 8.50867 2.92637 8.53319 2.89786 8.55632C2.83195 8.60981 2.79183 8.68867 2.78739 8.77334C2.78297 8.85805 2.81472 8.94068 2.87472 9.00066L3.78624 9.91222C3.90319 10.0292 4.09283 10.0292 4.20975 9.91222L9.91223 4.20975C10.0293 4.09284 10.0292 3.90323 9.9123 3.78628ZM6.06166 5.68267C6.06166 5.70614 6.05025 5.72812 6.03116 5.74166C6.01874 5.75048 6.00404 5.75507 5.98922 5.75507C5.98124 5.75507 5.97317 5.7537 5.96544 5.75103L5.03461 5.42655C5.02606 5.71663 5.00223 5.98419 4.96565 6.19731C4.95902 6.23596 4.95201 6.27226 4.9447 6.30629L5.42939 6.57562C5.44188 6.58256 5.44962 6.5957 5.44962 6.61002V6.77405C5.44962 6.78675 5.44345 6.79867 5.43309 6.80609C5.42637 6.81085 5.41837 6.81334 5.41032 6.81334C5.40595 6.81334 5.4016 6.81262 5.3974 6.81116L4.83088 6.61367C4.80484 6.64643 4.76917 6.67393 4.72168 6.67393C4.6742 6.67393 4.6385 6.64643 4.61247 6.61367L4.04594 6.81116C4.03391 6.81536 4.0206 6.81346 4.01025 6.80609C3.99985 6.79867 3.9937 6.78673 3.9937 6.77405V6.61002C3.9937 6.5957 4.00143 6.58252 4.01392 6.57562L4.49861 6.30629C4.49129 6.27226 4.4843 6.23596 4.47767 6.19731C4.44109 5.98419 4.41731 5.71663 4.40871 5.42655L3.47788 5.75103C3.45573 5.75872 3.43123 5.75528 3.41214 5.74166C3.39304 5.72812 3.38168 5.70614 3.38168 5.68267V5.38077C3.38168 5.35447 3.39592 5.33023 3.41889 5.31748L3.62915 5.20067V5.10558C3.62915 5.04161 3.68099 4.98978 3.74493 4.98978C3.79808 4.98978 3.84274 5.02562 3.85638 5.07438L4.03331 4.97609V4.88847C4.03331 4.8245 4.08514 4.77267 4.14908 4.77267C4.19988 4.77267 4.24295 4.80543 4.25859 4.85092L4.41555 4.76368C4.42718 4.53896 4.44829 4.33282 4.47767 4.16171C4.50099 4.026 4.52852 3.91841 4.55957 3.84196C4.57533 3.80314 4.62327 3.68506 4.72171 3.68506C4.82014 3.68506 4.86808 3.80317 4.88384 3.84196C4.9149 3.91839 4.94242 4.02597 4.96574 4.16171C4.99512 4.3328 5.01623 4.53896 5.02786 4.76368L5.1848 4.85092C5.20039 4.80541 5.24343 4.77267 5.29428 4.77267C5.35825 4.77267 5.41008 4.8245 5.41008 4.88847V4.97609L5.58696 5.07438C5.60061 5.02562 5.64533 4.98978 5.69846 4.98978C5.76243 4.98978 5.81421 5.04164 5.81421 5.10558V5.20067L6.02453 5.31748C6.04744 5.33023 6.06173 5.35447 6.06173 5.38077V5.68267H6.06166ZM8.02535 4.8846C7.90343 5.00655 7.70565 5.00655 7.58376 4.8846L5.11541 2.4163C4.99349 2.29436 4.99349 2.09665 5.11541 1.9747C5.23733 1.85276 5.43509 1.85276 5.55701 1.9747L8.02543 4.44307C8.1473 4.56502 8.1473 4.76272 8.02535 4.8846Z" fill="white"/>
</svg>
